<?xml version="1.0" encoding="UTF-8" standalone="no"?>
<svg
   xmlns:dc="http://purl.org/dc/elements/1.1/"
   xmlns:cc="http://creativecommons.org/ns#"
   xmlns:rdf="http://www.w3.org/1999/02/22-rdf-syntax-ns#"
   xmlns:svg="http://www.w3.org/2000/svg"
   xmlns="http://www.w3.org/2000/svg"
   xmlns:sodipodi="http://sodipodi.sourceforge.net/DTD/sodipodi-0.dtd"
   xmlns:inkscape="http://www.inkscape.org/namespaces/inkscape"
   width="84.039505mm"
   height="9.5778866mm"
   viewBox="0 0 84.039505 9.5778866"
   version="1.1"
   id="svg8"
   inkscape:version="1.0beta2 (2b71d25, 2019-12-03)"
   sodipodi:docname="ai-ai.svg">
  <defs
     id="defs2" />
  <sodipodi:namedview
     id="base"
     pagecolor="#ffffff"
     bordercolor="#666666"
     borderopacity="1.0"
     inkscape:pageopacity="0.0"
     inkscape:pageshadow="2"
     inkscape:zoom="1.4"
     inkscape:cx="273.94173"
     inkscape:cy="17.359506"
     inkscape:document-units="mm"
     inkscape:current-layer="layer1"
     inkscape:document-rotation="0"
     showgrid="false"
     fit-margin-top="0"
     fit-margin-left="0"
     fit-margin-right="0"
     fit-margin-bottom="0"
     inkscape:window-width="1440"
     inkscape:window-height="791"
     inkscape:window-x="0"
     inkscape:window-y="23"
     inkscape:window-maximized="0" />
  <metadata
     id="metadata5">
    <rdf:RDF>
      <cc:Work
         rdf:about="">
        <dc:format>image/svg+xml</dc:format>
        <dc:type
           rdf:resource="http://purl.org/dc/dcmitype/StillImage" />
        <dc:title />
      </cc:Work>
    </rdf:RDF>
  </metadata>
  <g
     inkscape:label="Layer 1"
     inkscape:groupmode="layer"
     id="layer1"
     transform="translate(-78.170006,-99.481846)">
    <g
       style="font-style:normal;font-weight:normal;font-size:10.5833px;line-height:1.25;font-family:sans-serif;fill:#2c2ca0;fill-opacity:1;stroke:none;stroke-width:0.264583"
       id="text835-5"
       aria-label="AI - AI">
      <path
         id="path854"
         style="font-style:normal;font-variant:normal;font-weight:normal;font-stretch:normal;font-family:Plumpfull;-inkscape-font-specification:Plumpfull;fill:#2c2ca0;fill-opacity:1;stroke-width:0.264583"
         d="m 107.23983,99.841678 q 0.127,0.370412 0.46567,1.396992 0.34925,1.02658 0.508,1.53458 0.16933,0.508 0.42333,1.3335 0.26458,0.81491 0.46566,1.49224 0.20109,0.67733 0.37042,1.3335 0.0318,0.13758 -0.0635,0.26458 -0.0952,0.127 -0.24342,0.13758 -0.88899,0.0529 -1.78858,0.0847 -0.20108,0 -0.26458,-0.20108 -0.13758,-0.43392 -0.29633,-0.91017 -1.04775,0.0106 -2.10608,0 -0.14816,0.47625 -0.28575,0.91017 -0.0635,0.20108 -0.27516,0.20108 -0.89958,-0.0318 -1.79916,-0.0847 -0.14817,-0.0106 -0.24342,-0.13758 -0.0953,-0.127 -0.0529,-0.26458 0.16933,-0.65617 0.35983,-1.3335 0.20108,-0.67733 0.46566,-1.49224 0.26459,-0.8255 0.42333,-1.3335 0.16934,-0.508 0.508,-1.53458 0.34925,-1.02658 0.46567,-1.396992 0.0741,-0.211666 0.28575,-0.222249 1.19591,-0.02117 2.39182,0 0.22225,0.01058 0.28575,0.222249 z m -2.01082,4.730732 q 0.51858,0 1.04774,0 -0.0106,-0.0212 -0.51858,-2.00024 -0.0529,0.22225 -0.16933,0.635 -0.10584,0.40216 -0.20109,0.74083 -0.0847,0.32808 -0.15874,0.62441 z" />
      <path
         id="path856"
         style="font-style:normal;font-variant:normal;font-weight:normal;font-stretch:normal;font-family:Plumpfull;-inkscape-font-specification:Plumpfull;fill:#2c2ca0;fill-opacity:1;stroke-width:0.264583"
         d="m 112.41507,107.40874 q -0.92075,0.14816 -1.85208,0 -0.11642,-0.0212 -0.21167,-0.127 -0.0847,-0.10584 -0.0847,-0.22225 -0.0741,-3.49249 0,-6.98498 0,-0.126999 0.0847,-0.222248 0.0952,-0.105833 0.21167,-0.127 0.93133,-0.148166 1.85208,0 0.11641,0.02117 0.20108,0.127 0.0952,0.09525 0.0952,0.222248 0.0741,3.49249 0,6.98498 0,0.11641 -0.0952,0.22225 -0.0847,0.10583 -0.20108,0.127 z" />
      <path
         id="path858"
         style="font-style:normal;font-variant:normal;font-weight:normal;font-stretch:normal;font-family:Plumpfull;-inkscape-font-specification:Plumpfull;fill:#2c2ca0;fill-opacity:1;stroke-width:0.264583"
         d="m 122.70385,105.0275 q 0,0.14816 -0.11641,0.26458 -0.10584,0.10583 -0.26459,0.10583 h -4.04282 q -0.15875,0 -0.26458,-0.10583 -0.10583,-0.11642 -0.10583,-0.26458 v -0.85725 q 0,-0.15875 0.10583,-0.26458 0.10583,-0.11642 0.26458,-0.11642 h 4.04282 q 0.15875,0 0.26459,0.11642 0.11641,0.10583 0.11641,0.26458 z" />
      <path
         id="path860"
         style="font-style:normal;font-variant:normal;font-weight:normal;font-stretch:normal;font-family:Plumpfull;-inkscape-font-specification:Plumpfull;fill:#2c2ca0;fill-opacity:1;stroke-width:0.264583"
         d="m 132.82992,99.841678 q 0.127,0.370412 0.46567,1.396992 0.34924,1.02658 0.50799,1.53458 0.16934,0.508 0.42334,1.3335 0.26458,0.81491 0.46566,1.49224 0.20108,0.67733 0.37042,1.3335 0.0318,0.13758 -0.0635,0.26458 -0.0953,0.127 -0.24342,0.13758 -0.889,0.0529 -1.78858,0.0847 -0.20108,0 -0.26458,-0.20108 -0.13758,-0.43392 -0.29633,-0.91017 -1.04775,0.0106 -2.10608,0 -0.14816,0.47625 -0.28575,0.91017 -0.0635,0.20108 -0.27516,0.20108 -0.89958,-0.0318 -1.79916,-0.0847 -0.14817,-0.0106 -0.24342,-0.13758 -0.0952,-0.127 -0.0529,-0.26458 0.16934,-0.65617 0.35984,-1.3335 0.20108,-0.67733 0.46566,-1.49224 0.26458,-0.8255 0.42333,-1.3335 0.16934,-0.508 0.508,-1.53458 0.34925,-1.02658 0.46567,-1.396992 0.0741,-0.211666 0.28575,-0.222249 1.19591,-0.02117 2.39182,0 0.22225,0.01058 0.28575,0.222249 z m -2.01083,4.730732 q 0.51858,0 1.04775,0 -0.0106,-0.0212 -0.51858,-2.00024 -0.0529,0.22225 -0.16933,0.635 -0.10584,0.40216 -0.20109,0.74083 -0.0847,0.32808 -0.15875,0.62441 z" />
      <path
         id="path862"
         style="font-style:normal;font-variant:normal;font-weight:normal;font-stretch:normal;font-family:Plumpfull;-inkscape-font-specification:Plumpfull;fill:#2c2ca0;fill-opacity:1;stroke-width:0.264583"
         d="m 138.00515,107.40874 q -0.92075,0.14816 -1.85208,0 -0.11641,-0.0212 -0.21166,-0.127 -0.0847,-0.10584 -0.0847,-0.22225 -0.0741,-3.49249 0,-6.98498 0,-0.126999 0.0847,-0.222248 0.0953,-0.105833 0.21166,-0.127 0.93133,-0.148166 1.85208,0 0.11642,0.02117 0.20108,0.127 0.0952,0.09525 0.0952,0.222248 0.0741,3.49249 0,6.98498 0,0.11641 -0.0952,0.22225 -0.0847,0.10583 -0.20108,0.127 z" />
    </g>
  </g>
</svg>
