<?xml version="1.0" encoding="UTF-8" standalone="no"?>
<svg
   xmlns:dc="http://purl.org/dc/elements/1.1/"
   xmlns:cc="http://creativecommons.org/ns#"
   xmlns:rdf="http://www.w3.org/1999/02/22-rdf-syntax-ns#"
   xmlns:svg="http://www.w3.org/2000/svg"
   xmlns="http://www.w3.org/2000/svg"
   xmlns:sodipodi="http://sodipodi.sourceforge.net/DTD/sodipodi-0.dtd"
   xmlns:inkscape="http://www.inkscape.org/namespaces/inkscape"
   sodipodi:docname="player-player.svg"
   inkscape:version="1.0beta2 (2b71d25, 2019-12-03)"
   id="svg8"
   version="1.1"
   viewBox="0 0 84.039505 9.5778866"
   height="9.5778866mm"
   width="84.039505mm">
  <defs
     id="defs2" />
  <sodipodi:namedview
     inkscape:window-maximized="0"
     inkscape:window-y="23"
     inkscape:window-x="0"
     inkscape:window-height="791"
     inkscape:window-width="1440"
     fit-margin-bottom="0"
     fit-margin-right="0"
     fit-margin-left="0"
     fit-margin-top="0"
     showgrid="false"
     inkscape:document-rotation="0"
     inkscape:current-layer="layer1"
     inkscape:document-units="mm"
     inkscape:cy="17.359506"
     inkscape:cx="236.60902"
     inkscape:zoom="1.4"
     inkscape:pageshadow="2"
     inkscape:pageopacity="0.0"
     borderopacity="1.0"
     bordercolor="#666666"
     pagecolor="#ffffff"
     id="base" />
  <metadata
     id="metadata5">
    <rdf:RDF>
      <cc:Work
         rdf:about="">
        <dc:format>image/svg+xml</dc:format>
        <dc:type
           rdf:resource="http://purl.org/dc/dcmitype/StillImage" />
        <dc:title></dc:title>
      </cc:Work>
    </rdf:RDF>
  </metadata>
  <g
     transform="translate(-78.170006,-99.481846)"
     id="layer1"
     inkscape:groupmode="layer"
     inkscape:label="Layer 1">
    <g
       style="font-style:normal;font-weight:normal;font-size:10.5833px;line-height:1.25;font-family:sans-serif;fill:#2c2ca0;fill-opacity:1;stroke:none;stroke-width:0.264583"
       id="text835"
       aria-label="Player - Player">
      <path
         id="path855"
         style="font-style:normal;font-variant:normal;font-weight:normal;font-stretch:normal;font-family:Plumpfull;-inkscape-font-specification:Plumpfull;fill:#2c2ca0;fill-opacity:1;stroke-width:0.264583"
         d="m 84.234237,102.41342 q 0.01058,1.143 -0.772581,1.80974 -0.751414,0.62442 -1.915577,0.635 -0.423332,0 -0.846664,0 0,1.143 0.01058,2.286 0,0.12699 -0.08467,0.21166 -0.08467,0.0847 -0.201083,0.0847 -0.93133,-0.0212 -1.862661,-0.0952 -0.116416,-0.0106 -0.211666,-0.10584 -0.08467,-0.0952 -0.09525,-0.21166 -0.169333,-3.49249 0,-6.98498 0.01058,-0.126999 0.09525,-0.211665 0.09525,-0.09525 0.211666,-0.105833 1.566329,-0.127 3.132657,-0.105833 0.984247,0.01058 1.756828,0.867831 0.761997,0.84666 0.783164,1.92616 z m -3.534822,0.55033 q 0.253999,0 0.518582,0 0.253999,0 0.412748,-0.22225 0.169333,-0.22225 0.169333,-0.508 0,-0.26458 -0.179916,-0.48683 -0.169333,-0.23283 -0.402165,-0.23283 -0.264583,0 -0.518582,0 0,0.73025 0,1.44991 z" />
      <path
         id="path857"
         style="font-style:normal;font-variant:normal;font-weight:normal;font-stretch:normal;font-family:Plumpfull;-inkscape-font-specification:Plumpfull;fill:#2c2ca0;fill-opacity:1;stroke-width:0.264583"
         d="m 87.390045,107.33465 q -1.195913,0.27517 -2.402409,0 -0.08467,-3.8629 0,-7.715221 1.206496,-0.275166 2.402409,0 0.08467,3.852321 0,7.715221 z" />
      <path
         id="path859"
         style="font-style:normal;font-variant:normal;font-weight:normal;font-stretch:normal;font-family:Plumpfull;-inkscape-font-specification:Plumpfull;fill:#2c2ca0;fill-opacity:1;stroke-width:0.264583"
         d="m 94.585035,107.24999 q -1.164163,0.0635 -2.338909,0.0847 0.01058,-0.30691 0.01058,-0.60324 -0.211666,0.34925 -0.550332,0.52916 -0.349249,0.1905 -0.89958,0.17992 -0.582082,-0.0106 -1.05833,-0.254 -0.455082,-0.24342 -0.772581,-0.62442 -0.328082,-0.39158 -0.497415,-0.86783 -0.169333,-0.47625 -0.169333,-0.96308 0,-0.49741 0.169333,-0.98424 0.169333,-0.46567 0.497415,-0.85725 0.317499,-0.39158 0.772581,-0.635 0.476248,-0.24342 1.05833,-0.254 0.550331,-0.0106 0.89958,0.16933 0.338666,0.16934 0.550332,0.45509 -0.01058,-0.27517 -0.01058,-0.5715 1.174746,0.0212 2.338909,0.0847 0.201083,2.56116 0,5.11174 z m -2.360076,-2.61408 q 0,-0.20108 -0.05292,-0.37041 -0.05292,-0.17992 -0.158749,-0.3175 -0.09525,-0.14817 -0.264582,-0.23283 -0.15875,-0.0847 -0.359833,-0.0847 -0.211666,0 -0.370415,0.0847 -0.15875,0.0847 -0.264583,0.23283 -0.09525,0.13758 -0.158749,0.3175 -0.05292,0.16933 -0.05292,0.37041 0,0.1905 0.05292,0.37042 0.05292,0.16933 0.158749,0.3175 0.105833,0.13758 0.254,0.22225 0.158749,0.0847 0.380998,0.0847 0.201083,0 0.359833,-0.0847 0.169332,-0.0847 0.264582,-0.22225 0.105833,-0.14817 0.158749,-0.3175 0.05292,-0.17992 0.05292,-0.37042 z" />
      <path
         id="path861"
         style="font-style:normal;font-variant:normal;font-weight:normal;font-stretch:normal;font-family:Plumpfull;-inkscape-font-specification:Plumpfull;fill:#2c2ca0;fill-opacity:1;stroke-width:0.264583"
         d="m 98.392708,103.79983 q 0.433915,-1.01599 0.751414,-1.79916 1.206498,0.0212 2.412988,0.11642 -0.41274,1.03716 -0.87841,2.12724 -0.46566,1.09008 -1.111246,2.58233 -0.645581,1.48166 -0.973664,2.23307 -1.174746,0 -2.349492,-0.0741 0.127,-0.30692 0.412749,-1.11125 0.296332,-0.79374 0.539748,-1.35466 -1.322913,-2.99507 -1.873244,-4.40265 1.227663,-0.0953 2.444742,-0.11642 0.264583,0.78317 0.624415,1.79916 z" />
      <path
         id="path863"
         style="font-style:normal;font-variant:normal;font-weight:normal;font-stretch:normal;font-family:Plumpfull;-inkscape-font-specification:Plumpfull;fill:#2c2ca0;fill-opacity:1;stroke-width:0.264583"
         d="m 107.85666,104.92166 q 0,0.0423 -0.0106,0.10584 0,0.0529 0,0.10583 -1.86266,0.0106 -3.72532,0.0106 0,0.0317 -0.0106,0.0635 0,0.0318 0,0.0741 0,0.0317 0,0.0529 0.0106,0.0106 0.0106,0.0317 0.0106,0.0106 0.0106,0.0635 0.0318,0.15875 0.10583,0.30692 0.0847,0.14816 0.23283,0.26458 0.14817,0.10583 0.41275,0.10583 0.30692,0 0.43392,-0.14816 0.0212,-0.0318 0.0952,-0.10584 0.0741,-0.0741 0.127,-0.13758 0.0529,-0.0741 0.0847,-0.13758 0.26458,0.0106 0.93133,0.0423 0.67733,0.0318 1.12183,0.0423 0,0.0847 -0.0423,0.1905 -0.0318,0.0952 -0.0635,0.16934 -0.0318,0.0635 -0.10583,0.19049 -0.0741,0.127 -0.10584,0.17992 -0.14816,0.28575 -0.5715,0.56092 -0.37041,0.25399 -0.86783,0.40216 -0.49741,0.14817 -1.14299,0.14817 -0.71967,0 -1.29116,-0.254 -0.55034,-0.24342 -0.94192,-0.635 -0.39158,-0.40217 -0.59266,-0.889 -0.20109,-0.48683 -0.20109,-0.97366 0,-0.49742 0.20109,-0.99483 0.20108,-0.48683 0.59266,-0.87841 0.40217,-0.40217 0.9525,-0.65617 0.5715,-0.254 1.30174,-0.254 0.762,0 1.34408,0.254 0.56092,0.24342 0.94192,0.64558 0.39158,0.39158 0.58208,0.87842 0.1905,0.50799 0.1905,1.17474 z m -2.29658,-0.93133 q 0,-0.10583 -0.0529,-0.22225 -0.0423,-0.11641 -0.127,-0.21166 -0.0847,-0.0953 -0.22225,-0.15875 -0.127,-0.0635 -0.3175,-0.0635 -0.17992,0 -0.3175,0.0741 -0.127,0.0635 -0.21167,0.15875 -0.0741,0.0953 -0.11641,0.21167 -0.0318,0.11641 -0.0318,0.21166 0.69849,0 1.39699,0 z" />
      <path
         id="path865"
         style="font-style:normal;font-variant:normal;font-weight:normal;font-stretch:normal;font-family:Plumpfull;-inkscape-font-specification:Plumpfull;fill:#2c2ca0;fill-opacity:1;stroke-width:0.264583"
         d="m 108.47892,102.22292 q 1.2065,-0.0953 2.413,-0.0847 0,0.24342 0,0.47625 0.27516,-0.3175 0.75141,-0.4445 0.48683,-0.11641 1.06891,-0.0741 0.0529,0.96308 0.0741,1.91558 -0.74083,-0.0212 -1.18533,0.15875 -0.45508,0.17991 -0.6985,0.65616 0,1.30175 -0.0106,2.59291 -1.2065,0.0212 -2.40241,-0.0847 -0.14817,-2.55057 -0.0106,-5.11173 z" />
      <path
         id="path867"
         style="font-style:normal;font-variant:normal;font-weight:normal;font-stretch:normal;font-family:Plumpfull;-inkscape-font-specification:Plumpfull;fill:#2c2ca0;fill-opacity:1;stroke-width:0.264583"
         d="m 122.64235,105.0275 q 0,0.14816 -0.11641,0.26458 -0.10584,0.10583 -0.26459,0.10583 h -4.04282 q -0.15875,0 -0.26458,-0.10583 -0.10583,-0.11642 -0.10583,-0.26458 v -0.85725 q 0,-0.15875 0.10583,-0.26458 0.10583,-0.11642 0.26458,-0.11642 h 4.04282 q 0.15875,0 0.26459,0.11642 0.11641,0.10583 0.11641,0.26458 z" />
      <path
         id="path869"
         style="font-style:normal;font-variant:normal;font-weight:normal;font-stretch:normal;font-family:Plumpfull;-inkscape-font-specification:Plumpfull;fill:#2c2ca0;fill-opacity:1;stroke-width:0.264583"
         d="m 133.65742,102.41342 q 0.0106,1.143 -0.77258,1.80974 -0.75141,0.62442 -1.91558,0.635 -0.42333,0 -0.84666,0 0,1.143 0.0106,2.286 0,0.12699 -0.0847,0.21166 -0.0847,0.0847 -0.20109,0.0847 -0.93133,-0.0212 -1.86266,-0.0952 -0.11641,-0.0106 -0.21166,-0.10584 -0.0847,-0.0952 -0.0953,-0.21166 -0.16934,-3.49249 0,-6.98498 0.0106,-0.126999 0.0953,-0.211665 0.0952,-0.09525 0.21166,-0.105833 1.56633,-0.127 3.13266,-0.105833 0.98425,0.01058 1.75683,0.867831 0.76199,0.84666 0.78316,1.92616 z m -3.53482,0.55033 q 0.254,0 0.51858,0 0.254,0 0.41275,-0.22225 0.16933,-0.22225 0.16933,-0.508 0,-0.26458 -0.17991,-0.48683 -0.16934,-0.23283 -0.40217,-0.23283 -0.26458,0 -0.51858,0 0,0.73025 0,1.44991 z" />
      <path
         id="path871"
         style="font-style:normal;font-variant:normal;font-weight:normal;font-stretch:normal;font-family:Plumpfull;-inkscape-font-specification:Plumpfull;fill:#2c2ca0;fill-opacity:1;stroke-width:0.264583"
         d="m 136.81323,107.33465 q -1.19592,0.27517 -2.40241,0 -0.0847,-3.8629 0,-7.715221 1.20649,-0.275166 2.40241,0 0.0847,3.852321 0,7.715221 z" />
      <path
         id="path873"
         style="font-style:normal;font-variant:normal;font-weight:normal;font-stretch:normal;font-family:Plumpfull;-inkscape-font-specification:Plumpfull;fill:#2c2ca0;fill-opacity:1;stroke-width:0.264583"
         d="m 144.00822,107.24999 q -1.16417,0.0635 -2.33891,0.0847 0.0106,-0.30691 0.0106,-0.60324 -0.21166,0.34925 -0.55033,0.52916 -0.34925,0.1905 -0.89958,0.17992 -0.58208,-0.0106 -1.05833,-0.254 -0.45508,-0.24342 -0.77258,-0.62442 -0.32808,-0.39158 -0.49742,-0.86783 -0.16933,-0.47625 -0.16933,-0.96308 0,-0.49741 0.16933,-0.98424 0.16934,-0.46567 0.49742,-0.85725 0.3175,-0.39158 0.77258,-0.635 0.47625,-0.24342 1.05833,-0.254 0.55033,-0.0106 0.89958,0.16933 0.33867,0.16934 0.55033,0.45509 -0.0106,-0.27517 -0.0106,-0.5715 1.17474,0.0212 2.33891,0.0847 0.20108,2.56116 0,5.11174 z m -2.36008,-2.61408 q 0,-0.20108 -0.0529,-0.37041 -0.0529,-0.17992 -0.15874,-0.3175 -0.0952,-0.14817 -0.26459,-0.23283 -0.15875,-0.0847 -0.35983,-0.0847 -0.21167,0 -0.37041,0.0847 -0.15875,0.0847 -0.26459,0.23283 -0.0953,0.13758 -0.15875,0.3175 -0.0529,0.16933 -0.0529,0.37041 0,0.1905 0.0529,0.37042 0.0529,0.16933 0.15875,0.3175 0.10584,0.13758 0.254,0.22225 0.15875,0.0847 0.381,0.0847 0.20108,0 0.35983,-0.0847 0.16934,-0.0847 0.26459,-0.22225 0.10583,-0.14817 0.15874,-0.3175 0.0529,-0.17992 0.0529,-0.37042 z" />
      <path
         id="path875"
         style="font-style:normal;font-variant:normal;font-weight:normal;font-stretch:normal;font-family:Plumpfull;-inkscape-font-specification:Plumpfull;fill:#2c2ca0;fill-opacity:1;stroke-width:0.264583"
         d="m 147.81589,103.79983 q 0.43392,-1.01599 0.75142,-1.79916 1.20649,0.0212 2.41299,0.11642 -0.41275,1.03716 -0.87842,2.12724 -0.46566,1.09008 -1.11124,2.58233 -0.64558,1.48166 -0.97367,2.23307 -1.17474,0 -2.34949,-0.0741 0.127,-0.30692 0.41275,-1.11125 0.29633,-0.79374 0.53975,-1.35466 -1.32291,-2.99507 -1.87325,-4.40265 1.22767,-0.0953 2.44475,-0.11642 0.26458,0.78317 0.62441,1.79916 z" />
      <path
         id="path877"
         style="font-style:normal;font-variant:normal;font-weight:normal;font-stretch:normal;font-family:Plumpfull;-inkscape-font-specification:Plumpfull;fill:#2c2ca0;fill-opacity:1;stroke-width:0.264583"
         d="m 157.27984,104.92166 q 0,0.0423 -0.0106,0.10584 0,0.0529 0,0.10583 -1.86266,0.0106 -3.72533,0.0106 0,0.0317 -0.0106,0.0635 0,0.0318 0,0.0741 0,0.0317 0,0.0529 0.0106,0.0106 0.0106,0.0317 0.0106,0.0106 0.0106,0.0635 0.0318,0.15875 0.10583,0.30692 0.0847,0.14816 0.23283,0.26458 0.14817,0.10583 0.41275,0.10583 0.30692,0 0.43392,-0.14816 0.0212,-0.0318 0.0953,-0.10584 0.0741,-0.0741 0.127,-0.13758 0.0529,-0.0741 0.0847,-0.13758 0.26459,0.0106 0.93133,0.0423 0.67733,0.0318 1.12183,0.0423 0,0.0847 -0.0423,0.1905 -0.0318,0.0952 -0.0635,0.16934 -0.0317,0.0635 -0.10583,0.19049 -0.0741,0.127 -0.10584,0.17992 -0.14816,0.28575 -0.57149,0.56092 -0.37042,0.25399 -0.86783,0.40216 -0.49742,0.14817 -1.143,0.14817 -0.71967,0 -1.29116,-0.254 -0.55033,-0.24342 -0.94192,-0.635 -0.39158,-0.40217 -0.59266,-0.889 -0.20108,-0.48683 -0.20108,-0.97366 0,-0.49742 0.20108,-0.99483 0.20108,-0.48683 0.59266,-0.87841 0.40217,-0.40217 0.9525,-0.65617 0.5715,-0.254 1.30175,-0.254 0.76199,0 1.34407,0.254 0.56092,0.24342 0.94192,0.64558 0.39158,0.39158 0.58208,0.87842 0.1905,0.50799 0.1905,1.17474 z m -2.29658,-0.93133 q 0,-0.10583 -0.0529,-0.22225 -0.0423,-0.11641 -0.127,-0.21166 -0.0847,-0.0953 -0.22225,-0.15875 -0.127,-0.0635 -0.3175,-0.0635 -0.17992,0 -0.3175,0.0741 -0.127,0.0635 -0.21167,0.15875 -0.0741,0.0953 -0.11641,0.21167 -0.0317,0.11641 -0.0317,0.21166 0.6985,0 1.39699,0 z" />
      <path
         id="path879"
         style="font-style:normal;font-variant:normal;font-weight:normal;font-stretch:normal;font-family:Plumpfull;-inkscape-font-specification:Plumpfull;fill:#2c2ca0;fill-opacity:1;stroke-width:0.264583"
         d="m 157.90211,102.22292 q 1.2065,-0.0953 2.41299,-0.0847 0,0.24342 0,0.47625 0.27517,-0.3175 0.75142,-0.4445 0.48683,-0.11641 1.06891,-0.0741 0.0529,0.96308 0.0741,1.91558 -0.74083,-0.0212 -1.18533,0.15875 -0.45508,0.17991 -0.6985,0.65616 0,1.30175 -0.0106,2.59291 -1.20649,0.0212 -2.40241,-0.0847 -0.14816,-2.55057 -0.0106,-5.11173 z" />
    </g>
    <text
       xml:space="preserve"
       style="font-style:normal;font-weight:normal;font-size:10.5833px;line-height:1.25;font-family:sans-serif;fill:#2c2ca0;fill-opacity:1;stroke:none;stroke-width:0.264583"
       x="168.89096"
       y="107.34524"
       id="text835-5"><tspan
         sodipodi:role="line"
         id="tspan833-5"
         x="168.89096"
         y="107.34524"
         style="font-style:normal;font-variant:normal;font-weight:normal;font-stretch:normal;font-family:Plumpfull;-inkscape-font-specification:Plumpfull;fill:#2c2ca0;fill-opacity:1;stroke-width:0.264583">Editable Text</tspan></text>
  </g>
</svg>
