<?xml version="1.0" encoding="UTF-8" standalone="no"?>
<svg
   xmlns:dc="http://purl.org/dc/elements/1.1/"
   xmlns:cc="http://creativecommons.org/ns#"
   xmlns:rdf="http://www.w3.org/1999/02/22-rdf-syntax-ns#"
   xmlns:svg="http://www.w3.org/2000/svg"
   xmlns="http://www.w3.org/2000/svg"
   xmlns:sodipodi="http://sodipodi.sourceforge.net/DTD/sodipodi-0.dtd"
   xmlns:inkscape="http://www.inkscape.org/namespaces/inkscape"
   width="84.039505mm"
   height="9.5778866mm"
   viewBox="0 0 84.039505 9.5778866"
   version="1.1"
   id="svg8"
   inkscape:version="1.0beta2 (2b71d25, 2019-12-03)"
   sodipodi:docname="player-ai.svg">
  <defs
     id="defs2" />
  <sodipodi:namedview
     id="base"
     pagecolor="#ffffff"
     bordercolor="#666666"
     borderopacity="1.0"
     inkscape:pageopacity="0.0"
     inkscape:pageshadow="2"
     inkscape:zoom="1.4"
     inkscape:cx="273.94173"
     inkscape:cy="17.359506"
     inkscape:document-units="mm"
     inkscape:current-layer="layer1"
     inkscape:document-rotation="0"
     showgrid="false"
     fit-margin-top="0"
     fit-margin-left="0"
     fit-margin-right="0"
     fit-margin-bottom="0"
     inkscape:window-width="1440"
     inkscape:window-height="791"
     inkscape:window-x="0"
     inkscape:window-y="23"
     inkscape:window-maximized="0" />
  <metadata
     id="metadata5">
    <rdf:RDF>
      <cc:Work
         rdf:about="">
        <dc:format>image/svg+xml</dc:format>
        <dc:type
           rdf:resource="http://purl.org/dc/dcmitype/StillImage" />
        <dc:title />
      </cc:Work>
    </rdf:RDF>
  </metadata>
  <g
     inkscape:label="Layer 1"
     inkscape:groupmode="layer"
     id="layer1"
     transform="translate(-78.170006,-99.481846)">
    <g
       style="font-style:normal;font-weight:normal;font-size:10.5833px;line-height:1.25;font-family:sans-serif;fill:#2c2ca0;fill-opacity:1;stroke:none;stroke-width:0.264583"
       id="text835-5"
       aria-label="Player - AI">
      <path
         id="path854"
         style="font-style:normal;font-variant:normal;font-weight:normal;font-stretch:normal;font-family:Plumpfull;-inkscape-font-specification:Plumpfull;fill:#2c2ca0;fill-opacity:1;stroke-width:0.264583"
         d="m 96.200477,102.41342 q 0.01058,1.143 -0.772581,1.80974 -0.751414,0.62442 -1.915577,0.635 -0.423332,0 -0.846664,0 0,1.143 0.01058,2.286 0,0.12699 -0.08467,0.21166 -0.08467,0.0847 -0.201083,0.0847 -0.93133,-0.0212 -1.862661,-0.0952 -0.116416,-0.0106 -0.211666,-0.10584 -0.08467,-0.0952 -0.09525,-0.21166 -0.169333,-3.49249 0,-6.98498 0.01058,-0.126999 0.09525,-0.211665 0.09525,-0.09525 0.211666,-0.105833 1.566329,-0.127 3.132657,-0.105833 0.984247,0.01058 1.756828,0.867831 0.761997,0.84666 0.783164,1.92616 z m -3.534822,0.55033 q 0.253999,0 0.518581,0 0.254,0 0.412749,-0.22225 0.169333,-0.22225 0.169333,-0.508 0,-0.26458 -0.179916,-0.48683 -0.169333,-0.23283 -0.402166,-0.23283 -0.264582,0 -0.518581,0 0,0.73025 0,1.44991 z" />
      <path
         id="path856"
         style="font-style:normal;font-variant:normal;font-weight:normal;font-stretch:normal;font-family:Plumpfull;-inkscape-font-specification:Plumpfull;fill:#2c2ca0;fill-opacity:1;stroke-width:0.264583"
         d="m 99.356285,107.33465 q -1.195913,0.27517 -2.402409,0 -0.08467,-3.8629 0,-7.715221 1.206496,-0.275166 2.402409,0 0.08467,3.852321 0,7.715221 z" />
      <path
         id="path858"
         style="font-style:normal;font-variant:normal;font-weight:normal;font-stretch:normal;font-family:Plumpfull;-inkscape-font-specification:Plumpfull;fill:#2c2ca0;fill-opacity:1;stroke-width:0.264583"
         d="m 106.55127,107.24999 q -1.16416,0.0635 -2.3389,0.0847 0.0106,-0.30691 0.0106,-0.60324 -0.21167,0.34925 -0.55033,0.52916 -0.34925,0.1905 -0.89958,0.17992 -0.58208,-0.0106 -1.05833,-0.254 -0.45509,-0.24342 -0.77258,-0.62442 -0.32809,-0.39158 -0.49742,-0.86783 -0.16933,-0.47625 -0.16933,-0.96308 0,-0.49741 0.16933,-0.98424 0.16933,-0.46567 0.49742,-0.85725 0.31749,-0.39158 0.77258,-0.635 0.47625,-0.24342 1.05833,-0.254 0.55033,-0.0106 0.89958,0.16933 0.33866,0.16934 0.55033,0.45509 -0.0106,-0.27517 -0.0106,-0.5715 1.17474,0.0212 2.3389,0.0847 0.20109,2.56116 0,5.11174 z m -2.36007,-2.61408 q 0,-0.20108 -0.0529,-0.37041 -0.0529,-0.17992 -0.15875,-0.3175 -0.0952,-0.14817 -0.26458,-0.23283 -0.15875,-0.0847 -0.35983,-0.0847 -0.21167,0 -0.37042,0.0847 -0.15875,0.0847 -0.26458,0.23283 -0.0952,0.13758 -0.15875,0.3175 -0.0529,0.16933 -0.0529,0.37041 0,0.1905 0.0529,0.37042 0.0529,0.16933 0.15875,0.3175 0.10583,0.13758 0.254,0.22225 0.15875,0.0847 0.381,0.0847 0.20108,0 0.35983,-0.0847 0.16933,-0.0847 0.26458,-0.22225 0.10584,-0.14817 0.15875,-0.3175 0.0529,-0.17992 0.0529,-0.37042 z" />
      <path
         id="path860"
         style="font-style:normal;font-variant:normal;font-weight:normal;font-stretch:normal;font-family:Plumpfull;-inkscape-font-specification:Plumpfull;fill:#2c2ca0;fill-opacity:1;stroke-width:0.264583"
         d="m 110.35895,103.79983 q 0.43391,-1.01599 0.75141,-1.79916 1.2065,0.0212 2.41299,0.11642 -0.41274,1.03716 -0.87841,2.12724 -0.46566,1.09008 -1.11125,2.58233 -0.64558,1.48166 -0.97366,2.23307 -1.17475,0 -2.34949,-0.0741 0.127,-0.30692 0.41275,-1.11125 0.29633,-0.79374 0.53974,-1.35466 -1.32291,-2.99507 -1.87324,-4.40265 1.22766,-0.0953 2.44474,-0.11642 0.26459,0.78317 0.62442,1.79916 z" />
      <path
         id="path862"
         style="font-style:normal;font-variant:normal;font-weight:normal;font-stretch:normal;font-family:Plumpfull;-inkscape-font-specification:Plumpfull;fill:#2c2ca0;fill-opacity:1;stroke-width:0.264583"
         d="m 119.8229,104.92166 q 0,0.0423 -0.0106,0.10584 0,0.0529 0,0.10583 -1.86266,0.0106 -3.72532,0.0106 0,0.0317 -0.0106,0.0635 0,0.0318 0,0.0741 0,0.0317 0,0.0529 0.0106,0.0106 0.0106,0.0317 0.0106,0.0106 0.0106,0.0635 0.0318,0.15875 0.10583,0.30692 0.0847,0.14816 0.23283,0.26458 0.14817,0.10583 0.41275,0.10583 0.30692,0 0.43392,-0.14816 0.0212,-0.0318 0.0952,-0.10584 0.0741,-0.0741 0.127,-0.13758 0.0529,-0.0741 0.0847,-0.13758 0.26458,0.0106 0.93133,0.0423 0.67733,0.0318 1.12183,0.0423 0,0.0847 -0.0423,0.1905 -0.0318,0.0952 -0.0635,0.16934 -0.0318,0.0635 -0.10583,0.19049 -0.0741,0.127 -0.10584,0.17992 -0.14816,0.28575 -0.5715,0.56092 -0.37041,0.25399 -0.86783,0.40216 -0.49741,0.14817 -1.14299,0.14817 -0.71967,0 -1.29116,-0.254 -0.55034,-0.24342 -0.94192,-0.635 -0.39158,-0.40217 -0.59266,-0.889 -0.20109,-0.48683 -0.20109,-0.97366 0,-0.49742 0.20109,-0.99483 0.20108,-0.48683 0.59266,-0.87841 0.40217,-0.40217 0.9525,-0.65617 0.5715,-0.254 1.30174,-0.254 0.762,0 1.34408,0.254 0.56092,0.24342 0.94192,0.64558 0.39158,0.39158 0.58208,0.87842 0.1905,0.50799 0.1905,1.17474 z m -2.29658,-0.93133 q 0,-0.10583 -0.0529,-0.22225 -0.0423,-0.11641 -0.127,-0.21166 -0.0847,-0.0953 -0.22225,-0.15875 -0.127,-0.0635 -0.3175,-0.0635 -0.17992,0 -0.3175,0.0741 -0.127,0.0635 -0.21167,0.15875 -0.0741,0.0953 -0.11641,0.21167 -0.0318,0.11641 -0.0318,0.21166 0.69849,0 1.39699,0 z" />
      <path
         id="path864"
         style="font-style:normal;font-variant:normal;font-weight:normal;font-stretch:normal;font-family:Plumpfull;-inkscape-font-specification:Plumpfull;fill:#2c2ca0;fill-opacity:1;stroke-width:0.264583"
         d="m 120.44516,102.22292 q 1.2065,-0.0953 2.413,-0.0847 0,0.24342 0,0.47625 0.27516,-0.3175 0.75141,-0.4445 0.48683,-0.11641 1.06891,-0.0741 0.0529,0.96308 0.0741,1.91558 -0.74083,-0.0212 -1.18533,0.15875 -0.45508,0.17991 -0.6985,0.65616 0,1.30175 -0.0106,2.59291 -1.2065,0.0212 -2.40241,-0.0847 -0.14817,-2.55057 -0.0106,-5.11173 z" />
      <path
         id="path866"
         style="font-style:normal;font-variant:normal;font-weight:normal;font-stretch:normal;font-family:Plumpfull;-inkscape-font-specification:Plumpfull;fill:#2c2ca0;fill-opacity:1;stroke-width:0.264583"
         d="m 134.60859,105.0275 q 0,0.14816 -0.11641,0.26458 -0.10584,0.10583 -0.26459,0.10583 h -4.04282 q -0.15875,0 -0.26458,-0.10583 -0.10583,-0.11642 -0.10583,-0.26458 v -0.85725 q 0,-0.15875 0.10583,-0.26458 0.10583,-0.11642 0.26458,-0.11642 h 4.04282 q 0.15875,0 0.26459,0.11642 0.11641,0.10583 0.11641,0.26458 z" />
      <path
         id="path868"
         style="font-style:normal;font-variant:normal;font-weight:normal;font-stretch:normal;font-family:Plumpfull;-inkscape-font-specification:Plumpfull;fill:#2c2ca0;fill-opacity:1;stroke-width:0.264583"
         d="m 144.73466,99.841678 q 0.127,0.370412 0.46567,1.396992 0.34925,1.02658 0.508,1.53458 0.16933,0.508 0.42333,1.3335 0.26458,0.81491 0.46566,1.49224 0.20109,0.67733 0.37042,1.3335 0.0318,0.13758 -0.0635,0.26458 -0.0952,0.127 -0.24342,0.13758 -0.88899,0.0529 -1.78857,0.0847 -0.20109,0 -0.26459,-0.20108 -0.13758,-0.43392 -0.29633,-0.91017 -1.04775,0.0106 -2.10608,0 -0.14816,0.47625 -0.28574,0.91017 -0.0635,0.20108 -0.27517,0.20108 -0.89958,-0.0318 -1.79916,-0.0847 -0.14817,-0.0106 -0.24342,-0.13758 -0.0953,-0.127 -0.0529,-0.26458 0.16933,-0.65617 0.35983,-1.3335 0.20108,-0.67733 0.46566,-1.49224 0.26459,-0.8255 0.42334,-1.3335 0.16933,-0.508 0.50799,-1.53458 0.34925,-1.02658 0.46567,-1.396992 0.0741,-0.211666 0.28575,-0.222249 1.19591,-0.02117 2.39182,0 0.22225,0.01058 0.28575,0.222249 z m -2.01082,4.730732 q 0.51858,0 1.04774,0 -0.0106,-0.0212 -0.51858,-2.00024 -0.0529,0.22225 -0.16933,0.635 -0.10583,0.40216 -0.20108,0.74083 -0.0847,0.32808 -0.15875,0.62441 z" />
      <path
         id="path870"
         style="font-style:normal;font-variant:normal;font-weight:normal;font-stretch:normal;font-family:Plumpfull;-inkscape-font-specification:Plumpfull;fill:#2c2ca0;fill-opacity:1;stroke-width:0.264583"
         d="m 149.9099,107.40874 q -0.92075,0.14816 -1.85208,0 -0.11642,-0.0212 -0.21167,-0.127 -0.0847,-0.10584 -0.0847,-0.22225 -0.0741,-3.49249 0,-6.98498 0,-0.126999 0.0847,-0.222248 0.0952,-0.105833 0.21167,-0.127 0.93133,-0.148166 1.85208,0 0.11641,0.02117 0.20108,0.127 0.0952,0.09525 0.0952,0.222248 0.0741,3.49249 0,6.98498 0,0.11641 -0.0952,0.22225 -0.0847,0.10583 -0.20108,0.127 z" />
    </g>
  </g>
</svg>
